<svg width="42" height="42" viewBox="0 0 42 42" fill="none" xmlns="http://www.w3.org/2000/svg">
<path d="M20.7097 37.9673C11.1783 37.9673 3.4516 30.2405 3.4516 20.7092C3.4516 11.1779 11.1783 3.45117 20.7097 3.45117C30.2409 3.45117 37.9677 11.1779 37.9677 20.7092C37.9677 30.2405 30.2409 37.9673 20.7097 37.9673ZM16.7576 33.9417C15.0964 30.4185 14.0779 26.5325 13.8536 22.435H7.01002C7.69363 27.9171 11.5912 32.4011 16.7576 33.9417ZM17.311 22.435C17.5706 26.6439 18.773 30.5976 20.7097 34.0877C22.6464 30.5976 23.8487 26.6439 24.1083 22.435H17.311ZM34.4093 22.435H27.5658C27.3414 26.5325 26.323 30.4185 24.6618 33.9417C29.8281 32.4011 33.7257 27.9171 34.4093 22.435ZM7.01002 18.9834H13.8536C14.0779 14.886 15.0964 11 16.7576 7.47672C11.5912 9.01747 7.69363 13.5014 7.01002 18.9834ZM17.311 18.9834H24.1083C23.8487 14.7746 22.6464 10.8208 20.7097 7.33077C18.773 10.8208 17.5706 14.7746 17.311 18.9834ZM24.6618 7.47672C26.323 11 27.3414 14.886 27.5658 18.9834H34.4093C33.7257 13.5014 29.8281 9.01747 24.6618 7.47672Z" fill="#DD9B59"/>
</svg>
